<svg width="42" height="42" viewBox="0 0 42 42" fill="none" xmlns="http://www.w3.org/2000/svg">
<g filter="url(#filter0_d_26934_555)">
<rect x="4.99981" y="1" width="32" height="32" rx="16" fill="black" stroke="white" stroke-width="1.2"/>
<path d="M28.3 13.1773C28.3071 13.3359 28.3107 13.4952 28.3107 13.6552C28.3107 18.5354 24.5958 24.1624 17.8039 24.1624C15.7182 24.1624 13.7768 23.551 12.1426 22.5031C12.4318 22.5374 12.7254 22.5549 13.0236 22.5549C14.7539 22.5549 16.346 21.9646 17.6103 20.9739C15.9939 20.9442 14.6304 19.8764 14.1604 18.4093C14.3861 18.4525 14.6172 18.4757 14.8554 18.4757C15.1918 18.4757 15.5182 18.4304 15.8282 18.3461C14.139 18.0068 12.8658 16.5143 12.8658 14.7251C12.8658 14.7094 12.8658 14.694 12.8661 14.6787C13.364 14.9551 13.9333 15.1212 14.5389 15.1404C13.5479 14.4784 12.8961 13.348 12.8961 12.0666C12.8961 11.3899 13.0779 10.7556 13.3961 10.2102C15.2175 12.4444 17.9381 13.9144 21.0073 14.0687C20.9445 13.7983 20.9116 13.5166 20.9116 13.2269C20.9116 11.1877 22.5651 9.53418 24.6043 9.53418C25.6672 9.53418 26.6264 9.98274 27.2999 10.7002C28.1414 10.5349 28.9313 10.2274 29.6449 9.80415C29.3692 10.6666 28.7842 11.3902 28.0214 11.8473C28.7685 11.758 29.4806 11.5595 30.1427 11.2659C29.6478 12.0063 29.0214 12.6566 28.3 13.1773Z" fill="white"/>
</g>
<defs>
<filter id="filter0_d_26934_555" x="0.399811" y="0.399902" width="41.2" height="41.2002" filterUnits="userSpaceOnUse" color-interpolation-filters="sRGB">
<feFlood flood-opacity="0" result="BackgroundImageFix"/>
<feColorMatrix in="SourceAlpha" type="matrix" values="0 0 0 0 0 0 0 0 0 0 0 0 0 0 0 0 0 0 127 0" result="hardAlpha"/>
<feOffset dy="4"/>
<feGaussianBlur stdDeviation="2"/>
<feComposite in2="hardAlpha" operator="out"/>
<feColorMatrix type="matrix" values="0 0 0 0 0 0 0 0 0 0 0 0 0 0 0 0 0 0 0.25 0"/>
<feBlend mode="normal" in2="BackgroundImageFix" result="effect1_dropShadow_26934_555"/>
<feBlend mode="normal" in="SourceGraphic" in2="effect1_dropShadow_26934_555" result="shape"/>
</filter>
</defs>
</svg>
